<svg xmlns="http://www.w3.org/2000/svg"  viewBox="0 0 48 48" width="50px" height="50px" baseProfile="basic"><path fill="#ff5722" d="M38,5H10l-5,7l0.908,28.136C5.959,41.732,7.268,43,8.865,43H14v-9.007c0-0.62-0.31-1.2-0.826-1.544 l-1.19-0.793c-0.615-0.41-0.984-1.1-0.984-1.839V29v-1v-9.066C11,18.418,11.418,18,11.934,18H13v9c0,0.552,0.448,1,1,1s1-0.448,1-1 v-9h2v9c0,0.552,0.448,1,1,1s1-0.448,1-1v-9h1.066C20.582,18,21,18.418,21,18.934V28v1v0.817c0,0.739-0.369,1.429-0.984,1.839 l-1.19,0.793C18.31,32.793,18,33.373,18,33.993V43h11v-9.315c0-0.589-0.322-1.126-0.836-1.414C26.281,31.218,25,29.049,25,26 c0-4.418,2.686-9,6-9s6,4.582,6,9c0,3.049-1.281,5.218-3.164,6.272C33.322,32.559,33,33.096,33,33.685V43h6.135 c1.597,0,2.906-1.268,2.958-2.864L43,12L38,5z M32,13H16V9.003C16,8.449,16.449,8,17.003,8h13.994C31.551,8,32,8.449,32,9.003V13z"/></svg>